<?xml version="1.0" encoding="UTF-8"?>
<svg version="1.1" xmlns="http://www.w3.org/2000/svg" width="1356" height="551">
<path d="M0 0 C0.83581604 -0.00067474 1.67163208 -0.00134949 2.53277588 -0.00204468 C70.69332904 0.08484716 137.62245937 25.94280754 187.3515625 72.87890625 C189.47521249 74.87434827 191.63923171 76.75881789 193.875 78.625 C213.25513829 95.51741868 228.202469 118.10279056 240.875 140.25 C241.52984375 141.38179687 242.1846875 142.51359375 242.859375 143.6796875 C264.875 182.73310964 264.875 182.73310964 264.875 199.25 C265.65459076 199.24111755 266.43418152 199.23223511 267.23739624 199.2230835 C274.62175072 199.14258872 282.00588934 199.0818599 289.39056969 199.04275131 C293.1861903 199.02196847 296.98144524 198.99382407 300.77685547 198.94824219 C304.44679937 198.90444817 308.11639388 198.88079313 311.78657913 198.87049103 C313.17949541 198.86315924 314.57239483 198.84884354 315.96516037 198.82707977 C327.06126178 198.66074884 336.01187714 200.19978863 344.875 207.25 C346.98461462 209.50057965 348.95996601 211.83243937 350.875 214.25 C351.64070312 213.72212891 351.64070312 213.72212891 352.421875 213.18359375 C374.93169197 197.89767194 398.49230578 190.47643052 425.75 195.4375 C433.32657581 197.16131465 441.19998676 199.4806112 447.92578125 203.46484375 C450.64980774 204.5620969 452.07956306 204.09935105 454.875 203.25 C457.01532393 202.32639768 459.13910732 201.36401965 461.25 200.375 C483.55063831 190.52184593 507.59742141 192.79183092 529.875 201.25 C529.85405273 200.42910889 529.83310547 199.60821777 529.81152344 198.76245117 C529.7426042 195.66304826 529.69284379 192.56404085 529.65527344 189.46411133 C529.62569866 187.48427092 529.57482467 185.50478499 529.5234375 183.52539062 C529.39586813 170.92791545 531.78935277 162.4302132 540.66015625 153.34375 C550.67490584 143.87654403 563.24106712 143.80316847 576.39892578 143.87768555 C577.92139941 143.87525171 579.44387143 143.87152669 580.96633911 143.86662292 C585.06542979 143.85729275 589.16427839 143.86657155 593.26335001 143.87995505 C597.57212216 143.89135265 601.88088383 143.88715577 606.18966675 143.88520813 C613.42026681 143.88432795 620.65077263 143.89534906 627.88134766 143.91381836 C636.22022441 143.93499774 644.55896339 143.93849076 652.8978616 143.9322564 C660.94962501 143.92654682 669.0013403 143.93222614 677.05309677 143.94342995 C680.46671318 143.94805321 683.88029994 143.94895971 687.29391861 143.9468441 C691.31760871 143.94494981 695.3411601 143.95315209 699.36481857 143.9689045 C700.83449988 143.97311857 702.30419533 143.97401747 703.77388 143.97121429 C717.29229337 143.94935581 728.53214609 144.67283823 738.91796875 154.10546875 C745.72605604 161.37807372 748.5630497 168.94143515 749.03515625 178.8671875 C748.75770063 184.72759162 746.97263258 189.81100578 744.875 195.25 C744.6167041 195.92015137 744.3584082 196.59030273 744.09228516 197.28076172 C742.40693025 201.6266769 740.66142295 205.9447207 738.875 210.25 C739.54402344 209.81429687 740.21304688 209.37859375 740.90234375 208.9296875 C765.77892247 193.50286955 796.48397715 190.36717959 824.81201172 196.75830078 C849.66433283 202.6816824 870.20516052 215.9386204 885.875 236.25 C886.40867187 235.56035156 886.94234375 234.87070313 887.4921875 234.16015625 C905.15003882 211.88926765 929.75174737 198.9405888 957.73046875 194.66015625 C984.94465969 191.56681098 1013.49948658 197.19962769 1035.90234375 213.4453125 C1038.63170158 215.64257953 1041.25929885 217.91913747 1043.875 220.25 C1044.71546875 220.94738281 1045.5559375 221.64476562 1046.421875 222.36328125 C1066.26751934 239.21975246 1078.55384613 264.42255772 1080.875 290.25 C1082.90002482 320.20829395 1075.60457052 348.48405994 1056 371.5625 C1039.12289423 390.76647142 1016.01578123 406.29230969 990 409 C988.62528791 409.08795516 987.25032088 409.17214159 985.875 409.25 C985.90980469 410.48234375 985.94460938 411.7146875 985.98046875 412.984375 C986.26351089 427.03834201 985.91605139 439.35439105 975.875 450.25 C965.99254023 458.64210677 956.39245112 459.71810707 943.82421875 459.68359375 C942.35984558 459.68816435 940.89547455 459.69347252 939.43110657 459.69947815 C936.37073015 459.70837892 933.31061507 459.70602241 930.25024414 459.69604492 C926.35685069 459.68457944 922.46436755 459.70474403 918.57109356 459.73396206 C915.54845078 459.75244397 912.52602115 459.75200765 909.50333595 459.74632454 C908.0694228 459.74617267 906.63549393 459.75210376 905.20163536 459.76461601 C893.22417467 459.8544028 883.38727964 458.5216559 874.51953125 449.9609375 C873.70548828 449.11402344 873.70548828 449.11402344 872.875 448.25 C872.1325 447.486875 871.39 446.72375 870.625 445.9375 C865.0799145 437.42183298 864.33518704 429.6235471 864.625 419.625 C864.64304687 418.43003906 864.66109375 417.23507812 864.6796875 416.00390625 C864.7263888 413.08507473 864.7918666 410.16798239 864.875 407.25 C858.52914779 407.34388099 852.18362004 407.45134456 845.83813477 407.56738281 C843.68844556 407.60519504 841.53870326 407.64012185 839.38891602 407.671875 C827.91909413 407.84326622 816.5605003 408.12661433 805.17094421 409.58139038 C784.89534717 412.11549384 763.25923032 407.42463632 745.3125 397.875 C742.20008319 396.03735663 742.20008319 396.03735663 739.86328125 396.46875 C737.59322013 397.360719 736.36510931 398.42712635 734.625 400.125 C727.74861548 406.26515491 719.38611097 407.37393873 710.3921051 407.37698364 C709.10660767 407.37980347 707.82111023 407.38262329 706.49665833 407.38552856 C705.084442 407.38358453 703.67222581 407.38153638 702.26000977 407.37939453 C700.76311195 407.38075053 699.26621448 407.38253158 697.76931763 407.38470459 C693.7135388 407.38925564 689.65778546 407.38749882 685.6020062 407.3843255 C681.35185253 407.38178942 677.101701 407.38414297 672.85154724 407.38571167 C665.71377166 407.38752991 658.57600643 407.3851363 651.43823242 407.38037109 C643.19488175 407.37493122 634.95155583 407.37669052 626.70820576 407.3821975 C619.62268155 407.38674094 612.53716478 407.38737308 605.45163959 407.38475883 C601.22332061 407.38320257 596.99501325 407.38298441 592.76669502 407.38629532 C588.78992306 407.38919183 584.81318288 407.38716566 580.83641434 407.38140106 C579.37998571 407.38008292 577.92355439 407.38045147 576.46712685 407.38266373 C574.47304507 407.38541253 572.47895743 407.38134821 570.48487854 407.37698364 C568.81383482 407.3764181 568.81383482 407.3764181 567.10903263 407.37584114 C563.875 407.25 563.875 407.25 560.33688259 406.67956352 C556.81540059 406.24260468 554.33933015 406.60806241 550.875 407.25 C548.10235308 407.34258459 545.35538622 407.38937271 542.58329773 407.38371277 C541.76372725 407.38597833 540.94415677 407.38824388 540.09975082 407.39057809 C537.36165211 407.39689316 534.62360322 407.39609033 531.88549805 407.39526367 C529.91894466 407.39825672 527.95239187 407.40165959 525.98583984 407.40544128 C520.64898105 407.41427072 515.31213829 407.41661896 509.97527289 407.41725707 C506.63938019 407.41796818 503.30349156 407.42010367 499.96759987 407.42275429 C488.32515835 407.43200427 476.68272828 407.43608962 465.0402832 407.43530273 C454.19534947 407.43470206 443.3504655 407.44525283 432.50554436 407.4610464 C423.18816001 407.47413088 413.8707919 407.47948625 404.55339843 407.47884732 C398.9914343 407.4785926 393.4295144 407.48142967 387.86755943 407.49202538 C382.63497819 407.50172158 377.40248331 407.50177506 372.16989899 407.49450874 C370.25311723 407.49346479 368.33633005 407.4958145 366.41955757 407.5018692 C363.79548873 407.50961903 361.17171595 407.50492463 358.5476532 407.49723816 C357.79588088 407.50238172 357.04410857 407.50752529 356.26955527 407.51282471 C345.72746504 407.44496055 336.39754953 404.7317927 328.7578125 397.1484375 C327.07016912 395.22270335 325.46532475 393.25597781 323.875 391.25 C323.215 390.59 322.555 389.93 321.875 389.25 C321.17117188 389.81847656 320.46734375 390.38695312 319.7421875 390.97265625 C295.69544585 409.77683151 270.54042455 413.34441954 240.875 411.25 C240.56385254 411.75225098 240.25270508 412.25450195 239.93212891 412.77197266 C230.16541089 428.49549263 220.08229808 443.32463775 207.875 457.25 C207.15957031 458.07757813 206.44414062 458.90515625 205.70703125 459.7578125 C195.67965596 471.15854313 184.93892372 482.0112751 172.875 491.25 C171.70954748 492.16785711 170.54418883 493.08583341 169.37890625 494.00390625 C158.74066095 502.27976699 147.48333634 509.41727486 135.875 516.25 C134.88016602 516.8375708 134.88016602 516.8375708 133.86523438 517.43701172 C102.52605989 535.6901453 65.72404608 546.0859484 29.875 550.25 C29.09833984 550.3442627 28.32167969 550.43852539 27.52148438 550.53564453 C18.45344299 551.50672406 9.35977029 551.49358444 0.25 551.5 C-1.04540207 551.50101212 -1.04540207 551.50101212 -2.36697388 551.50204468 C-16.80332854 551.48419586 -30.87714697 550.73213626 -45.125 548.25 C-46.58486328 548.00056641 -46.58486328 548.00056641 -48.07421875 547.74609375 C-79.32982077 542.23039928 -107.51203484 531.08730789 -135.41796875 516.265625 C-136.38782715 515.76611328 -137.35768555 515.26660156 -138.35693359 514.75195312 C-141.125 513.25 -141.125 513.25 -143.52197266 511.60742188 C-147.32420669 509.17462646 -149.86315986 508.05472494 -154.42376709 508.76049805 C-156.28439789 509.27930542 -156.28439789 509.27930542 -158.18261719 509.80859375 C-159.61798984 510.19671853 -161.05344397 510.58454204 -162.4889679 510.97210693 C-163.62293471 511.28667469 -163.62293471 511.28667469 -164.77980995 511.60759735 C-168.77866719 512.70297829 -172.80091744 513.7058177 -176.82006836 514.72363281 C-178.55492708 515.16759565 -180.28961894 515.61221098 -182.02415466 516.05743408 C-185.74043488 517.0108211 -189.45685859 517.96364327 -193.17347717 518.91571045 C-201.17769048 520.96618602 -209.18168094 523.01752922 -217.18530273 525.0703125 C-222.1117706 526.33380815 -227.03853212 527.59615293 -231.96548653 528.85774994 C-233.83759414 529.33736876 -235.70958729 529.81743454 -237.58146477 530.29795074 C-240.17764966 530.9643678 -242.77420322 531.62932911 -245.37084961 532.29394531 C-246.14628113 532.49337738 -246.92171265 532.69280945 -247.72064209 532.89828491 C-253.01101978 534.25 -253.01101978 534.25 -254.125 534.25 C-253.54165052 527.73483844 -252.39002128 521.6836694 -250.6875 515.375 C-250.4294458 514.40232178 -250.1713916 513.42964355 -249.90551758 512.42749023 C-247.47480301 503.36095979 -244.89575185 494.3364538 -242.3125 485.3125 C-242.10202026 484.57651581 -241.89154053 483.84053162 -241.67468262 483.08224487 C-239.50635314 475.50331968 -237.32748252 467.92782808 -235.10752869 460.36384583 C-234.24718363 457.42470854 -233.39667854 454.48277842 -232.54800415 451.54025269 C-232.14474292 450.15130449 -231.73692708 448.76366963 -231.3243103 447.37747192 C-230.75294044 445.45683816 -230.19836443 443.5312326 -229.64453125 441.60546875 C-229.32589111 440.51903076 -229.00725098 439.43259277 -228.67895508 438.31323242 C-227.74670882 433.15814482 -228.66701997 429.37310007 -231.56640625 425.0703125 C-232.06366211 424.31484131 -232.56091797 423.55937012 -233.07324219 422.78100586 C-233.60594727 421.98702393 -234.13865234 421.19304199 -234.6875 420.375 C-240.18365101 411.92169848 -244.87661521 403.38314036 -249.125 394.25 C-249.44919922 393.57211426 -249.77339844 392.89422852 -250.10742188 392.19580078 C-265.44904404 360.0696066 -275.14447099 323.01746757 -275.328125 287.2734375 C-275.33518463 286.35357056 -275.34224426 285.43370361 -275.34951782 284.48596191 C-275.57743649 246.06122222 -275.57743649 246.06122222 -272.125 228.25 C-271.92632324 227.19329102 -271.72764648 226.13658203 -271.52294922 225.04785156 C-258.95113041 159.78739888 -222.01893584 95.24022902 -167.125 56.25 C-165.75862472 55.25197239 -164.39276723 54.25323564 -163.02734375 53.25390625 C-154.02657237 46.72625546 -144.82619573 40.68257903 -135.125 35.25 C-134.35736328 34.8183252 -133.58972656 34.38665039 -132.79882812 33.94189453 C-92.05716041 11.26021905 -46.51540998 0.03396462 0 0 Z " fill="#FDFEFD" transform="translate(275.125,-0.25)"/>
<path d="M0 0 C0.83581604 -0.00067474 1.67163208 -0.00134949 2.53277588 -0.00204468 C70.69332904 0.08484716 137.62245937 25.94280754 187.3515625 72.87890625 C189.47521249 74.87434827 191.63923171 76.75881789 193.875 78.625 C213.25513829 95.51741868 228.202469 118.10279056 240.875 140.25 C241.52984375 141.38179687 242.1846875 142.51359375 242.859375 143.6796875 C264.875 182.73310964 264.875 182.73310964 264.875 200.25 C263.43859829 200.44573608 262.00080496 200.63127816 260.5625 200.8125 C259.76199219 200.91691406 258.96148438 201.02132812 258.13671875 201.12890625 C255.875 201.25 255.875 201.25 252.875 200.25 C250.92466181 200.14129599 248.97085935 200.09111109 247.01757812 200.07299805 C245.209245 200.05374519 245.209245 200.05374519 243.36437988 200.03410339 C242.05819702 200.02671646 240.75201416 200.01932953 239.40625 200.01171875 C238.73871201 200.00764322 238.07117401 200.0035677 237.38340759 199.99936867 C233.84349886 199.97851271 230.30362873 199.96421442 226.76367188 199.95483398 C223.13363315 199.94382836 219.50421742 199.90949659 215.87439728 199.86966228 C213.06196073 199.84330857 210.24966764 199.83512527 207.43711853 199.83155251 C205.45705374 199.82440221 203.47708774 199.79803563 201.49719238 199.77116394 C189.94426966 199.79862543 180.51882246 202.34356524 171.875 210.25 C169.07559885 213.35203911 166.94560819 216.62643567 164.875 220.25 C161.83133529 218.83784926 159.30301796 217.13819532 156.625 215.125 C137.25610588 201.47291604 115.9584253 195.86211475 92.4375 196 C91.12201172 195.99226562 89.80652344 195.98453125 88.45117188 195.9765625 C64.38942137 196.02418595 42.74917623 203.22769647 23.875 218.25 C23.215 218.25 22.555 218.25 21.875 218.25 C21.42511719 217.32960937 20.97523438 216.40921875 20.51171875 215.4609375 C5.23584717 185.05903719 -20.62132074 164.7029949 -52.5078125 153.71484375 C-58.24960303 151.83513304 -64.00349702 150.55796009 -69.96629524 149.59884453 C-71.42186098 149.36362656 -72.87652588 149.12277372 -74.33028984 148.87666512 C-88.48283258 146.50068857 -102.29405399 145.76131569 -116.62890625 145.74609375 C-118.81217125 145.73641796 -120.99543443 145.72632311 -123.17869568 145.71583557 C-127.71072912 145.69805505 -132.24259244 145.69229695 -136.7746582 145.6940918 C-142.55433369 145.69439863 -148.33291991 145.65315635 -154.11233616 145.60177517 C-158.6036016 145.56831337 -163.09460408 145.56233681 -167.58598137 145.56392097 C-169.71686557 145.56040698 -171.8477585 145.54728584 -173.97851753 145.52392387 C-187.45299857 145.3897783 -197.12602986 145.81604576 -208 154.5625 C-214.89446794 163.28197416 -218.43796332 170.50534752 -218.39242554 181.75566101 C-218.39695665 182.58621988 -218.40148776 183.41677874 -218.40615618 184.27250606 C-218.41876684 187.04199824 -218.41718196 189.81129292 -218.41552734 192.58081055 C-218.42151475 194.57220206 -218.42832079 196.56359126 -218.43588257 198.55497742 C-218.45353009 203.95603527 -218.45823748 209.35702972 -218.45951414 214.75811362 C-218.46093723 218.13608503 -218.46520988 221.51404041 -218.47050858 224.89200783 C-218.48900615 236.6870488 -218.4971797 248.48204461 -218.49560547 260.27709961 C-218.4944048 271.25440862 -218.5154933 282.23152077 -218.5470928 293.20877999 C-218.57328874 302.64683188 -218.58397134 312.08481961 -218.58269465 321.52290756 C-218.58218591 327.15375142 -218.58782036 332.78442038 -218.60905075 338.41522789 C-218.62848846 343.71521705 -218.62851974 349.01486547 -218.61401749 354.31486702 C-218.61193502 356.25296911 -218.61659655 358.19109284 -218.6287384 360.12915802 C-218.70325084 372.85351152 -218.44564311 385.14177177 -209.96484375 395.5 C-203.52036976 401.62977569 -195.47089092 405.46544631 -186.61108398 405.56884766 C-185.3050119 405.58870224 -183.99893982 405.60855682 -182.65328979 405.62901306 C-181.22589293 405.64091636 -179.79849417 405.6525931 -178.37109375 405.6640625 C-176.8833006 405.68296364 -175.3955176 405.70267884 -173.90774536 405.72315979 C-169.94331978 405.77513004 -165.97886439 405.81486872 -162.01427078 405.85149765 C-158.74833958 405.88280443 -155.48249035 405.92024331 -152.21662426 405.95765209 C-144.27568963 406.04839383 -136.33469912 406.12631121 -128.39354229 406.19470501 C-124.0985604 406.2317936 -119.80367416 406.27351656 -115.50878906 406.32080078 C-111.27509914 406.36696268 -107.04153301 406.40321137 -102.80764771 406.42523193 C-100.78180028 406.43695434 -98.75600477 406.45680423 -96.73022461 406.47705078 C-83.77698523 406.48913483 -71.19643883 405.12462932 -58.8125 401.1875 C-57.84320557 400.88368408 -56.87391113 400.57986816 -55.87524414 400.2668457 C-34.26860058 393.24490747 -15.99964383 382.01363703 -0.41796875 365.43359375 C0.875 364.25 0.875 364.25 2.875 364.25 C4.09927579 365.6603177 5.25371813 367.13148931 6.375 368.625 C20.77476841 386.95432819 40.25207947 399.60789813 62.875 405.25 C63.98617188 405.54777344 65.09734375 405.84554688 66.2421875 406.15234375 C73.90796506 407.97233689 81.20418503 408.5278437 89.0625 408.5625 C89.95251709 408.56797852 90.84253418 408.57345703 91.75952148 408.57910156 C96.41355842 408.52952233 100.78944382 408.13430853 105.36035156 407.24829102 C112.12198847 406.0904767 118.71979986 405.970846 125.56640625 405.9765625 C128.16602001 405.95628394 130.76562936 405.93543337 133.36523438 405.9140625 C137.40909685 405.88937955 141.45289258 405.87413103 145.49682617 405.86914062 C149.43691579 405.86311301 153.37648201 405.82577654 157.31640625 405.7890625 C158.51254044 405.79410797 159.70867462 405.79915344 160.9410553 405.80435181 C170.46704079 405.69368371 179.74253057 404.13427474 186.875 397.3125 C187.57625 396.66410156 188.2775 396.01570313 189 395.34765625 C190.98618586 393.12561081 192.42837148 390.84941061 193.875 388.25 C197.15649587 389.7184694 200.00622621 391.67754298 202.94921875 393.72802734 C214.54067857 401.76034471 226.28157124 405.92592384 239.875 409.25 C239.875 413.19950881 238.12880114 415.60839108 236.125 418.875 C235.72522949 419.53161621 235.32545898 420.18823242 234.91357422 420.86474609 C226.91630031 433.8073415 217.94694109 445.85966176 207.875 457.25 C207.16214844 458.07371094 206.44929688 458.89742188 205.71484375 459.74609375 C195.69220986 471.15503588 184.94094311 482.00972862 172.875 491.25 C171.70954748 492.16785711 170.54418883 493.08583341 169.37890625 494.00390625 C158.74066095 502.27976699 147.48333634 509.41727486 135.875 516.25 C134.88016602 516.8375708 134.88016602 516.8375708 133.86523438 517.43701172 C102.52605989 535.6901453 65.72404608 546.0859484 29.875 550.25 C29.09833984 550.3442627 28.32167969 550.43852539 27.52148438 550.53564453 C18.45344299 551.50672406 9.35977029 551.49358444 0.25 551.5 C-1.04540207 551.50101212 -1.04540207 551.50101212 -2.36697388 551.50204468 C-16.80332854 551.48419586 -30.87714697 550.73213626 -45.125 548.25 C-46.58486328 548.00056641 -46.58486328 548.00056641 -48.07421875 547.74609375 C-79.32982077 542.23039928 -107.51203484 531.08730789 -135.41796875 516.265625 C-136.38782715 515.76611328 -137.35768555 515.26660156 -138.35693359 514.75195312 C-141.125 513.25 -141.125 513.25 -143.52197266 511.60742188 C-147.32420669 509.17462646 -149.86315986 508.05472494 -154.42376709 508.76049805 C-156.28439789 509.27930542 -156.28439789 509.27930542 -158.18261719 509.80859375 C-159.61798984 510.19671853 -161.05344397 510.58454204 -162.4889679 510.97210693 C-163.62293471 511.28667469 -163.62293471 511.28667469 -164.77980995 511.60759735 C-168.77866719 512.70297829 -172.80091744 513.7058177 -176.82006836 514.72363281 C-178.55492708 515.16759565 -180.28961894 515.61221098 -182.02415466 516.05743408 C-185.74043488 517.0108211 -189.45685859 517.96364327 -193.17347717 518.91571045 C-201.17769048 520.96618602 -209.18168094 523.01752922 -217.18530273 525.0703125 C-222.1117706 526.33380815 -227.03853212 527.59615293 -231.96548653 528.85774994 C-233.83759414 529.33736876 -235.70958729 529.81743454 -237.58146477 530.29795074 C-240.17764966 530.9643678 -242.77420322 531.62932911 -245.37084961 532.29394531 C-246.14628113 532.49337738 -246.92171265 532.69280945 -247.72064209 532.89828491 C-253.01101978 534.25 -253.01101978 534.25 -254.125 534.25 C-253.54165052 527.73483844 -252.39002128 521.6836694 -250.6875 515.375 C-250.4294458 514.40232178 -250.1713916 513.42964355 -249.90551758 512.42749023 C-247.47480301 503.36095979 -244.89575185 494.3364538 -242.3125 485.3125 C-242.10202026 484.57651581 -241.89154053 483.84053162 -241.67468262 483.08224487 C-239.50635314 475.50331968 -237.32748252 467.92782808 -235.10752869 460.36384583 C-234.24718363 457.42470854 -233.39667854 454.48277842 -232.54800415 451.54025269 C-232.14474292 450.15130449 -231.73692708 448.76366963 -231.3243103 447.37747192 C-230.75294044 445.45683816 -230.19836443 443.5312326 -229.64453125 441.60546875 C-229.32589111 440.51903076 -229.00725098 439.43259277 -228.67895508 438.31323242 C-227.74670882 433.15814482 -228.66701997 429.37310007 -231.56640625 425.0703125 C-232.06366211 424.31484131 -232.56091797 423.55937012 -233.07324219 422.78100586 C-233.60594727 421.98702393 -234.13865234 421.19304199 -234.6875 420.375 C-240.18365101 411.92169848 -244.87661521 403.38314036 -249.125 394.25 C-249.44919922 393.57211426 -249.77339844 392.89422852 -250.10742188 392.19580078 C-265.44904404 360.0696066 -275.14447099 323.01746757 -275.328125 287.2734375 C-275.33518463 286.35357056 -275.34224426 285.43370361 -275.34951782 284.48596191 C-275.57743649 246.06122222 -275.57743649 246.06122222 -272.125 228.25 C-271.92632324 227.19329102 -271.72764648 226.13658203 -271.52294922 225.04785156 C-258.95113041 159.78739888 -222.01893584 95.24022902 -167.125 56.25 C-165.75862472 55.25197239 -164.39276723 54.25323564 -163.02734375 53.25390625 C-154.02657237 46.72625546 -144.82619573 40.68257903 -135.125 35.25 C-134.35736328 34.8183252 -133.58972656 34.38665039 -132.79882812 33.94189453 C-92.05716041 11.26021905 -46.51540998 0.03396462 0 0 Z " fill="#49C758" transform="translate(275.125,-0.25)"/>
<path d="M0 0 C130.49748744 0 130.49748744 0 161 30 C162.15822266 31.13888672 162.15822266 31.13888672 163.33984375 32.30078125 C180.8266344 50.56476259 186.60435917 74.36990354 186.2109375 99.01171875 C185.40925733 123.92813651 177.84841855 146.26644371 161 165 C160.38640625 165.69609375 159.7728125 166.3921875 159.140625 167.109375 C142.78875669 184.57931978 117.93966299 195.19400086 94.13452148 196.15625 C90.00548971 196.21708435 85.87916032 196.17481797 81.75 196.125 C76.8825 196.08375 72.015 196.0425 67 196 C67 176.86 67 157.72 67 138 C73.27 137.67 79.54 137.34 86 137 C97.4737496 135.94736242 108.81111303 132.88606694 117.0625 124.3125 C118.63800023 122.25697888 118.63800023 122.25697888 120 120 C120.75410156 118.81083984 120.75410156 118.81083984 121.5234375 117.59765625 C125.03900464 110.82873279 125.45556375 104.35656313 125.5 96.875 C125.50954712 95.49803955 125.50954712 95.49803955 125.51928711 94.09326172 C125.34699939 84.79971274 123.39487782 76.33995994 117.34375 69.109375 C101.36444104 54.72799694 77.68488591 57.59651169 58 57 C58 102.54 58 148.08 58 195 C38.86 195 19.72 195 0 195 C0 130.65 0 66.3 0 0 Z " fill="#010101" transform="translate(90,178)"/>
<path d="M0 0 C5.01067066 3.38558828 9.59131371 7.30030814 14.1015625 11.3203125 C17.46364942 10.30149828 19.72424763 8.89201696 22.2890625 6.5703125 C34.03555694 -3.80913302 46.97498338 -7.63444458 62.40625 -7.05859375 C77.0512382 -6.1117451 89.05954092 0.28098704 99.1015625 10.87890625 C108.38231275 22.20794709 112.27325658 36.40819443 112.21508789 50.79223633 C112.21523392 51.73906281 112.21537994 52.68588928 112.2155304 53.66140747 C112.21483508 56.78340973 112.20706051 59.90535194 112.19921875 63.02734375 C112.19735322 65.19496122 112.19592995 67.3625791 112.19493103 69.53019714 C112.19111652 75.22986011 112.18129531 80.92949751 112.17022705 86.62915039 C112.15818954 93.47074607 112.15360562 100.31235031 112.14777374 107.15395355 C112.13808301 117.54275764 112.11891896 127.93150565 112.1015625 138.3203125 C94.6115625 138.3203125 77.1215625 138.3203125 59.1015625 138.3203125 C59.06417969 132.33777344 59.02679687 126.35523438 58.98828125 120.19140625 C58.95799545 116.3951538 58.92684359 112.59894789 58.89257812 108.80273438 C58.83830572 102.78086725 58.78719354 96.75909219 58.75512695 90.73706055 C58.72906514 85.88045348 58.68864219 81.02415652 58.63837624 76.16774178 C58.62172701 74.31749397 58.61020064 72.46719256 58.60394859 70.61688042 C58.59428633 68.01956767 58.56620203 65.42304477 58.53393555 62.82592773 C58.53537064 62.06563263 58.53680573 61.30533752 58.5382843 60.52200317 C58.44930023 55.43758177 57.3648038 51.88128307 55.1015625 47.3203125 C52.1315625 47.3203125 49.1615625 47.3203125 46.1015625 47.3203125 C43.20622234 52.1749629 42.65892014 56.27098355 42.66918945 61.80419922 C42.6589978 62.63412888 42.64880615 63.46405853 42.63830566 64.31913757 C42.60825421 67.04616109 42.5989218 69.77283288 42.58984375 72.5 C42.57299124 74.39715739 42.55484022 76.29430366 42.53544617 78.19143677 C42.48800225 83.17261274 42.45815658 88.15374359 42.43200684 93.1350708 C42.39692311 99.11827865 42.33992628 105.10131325 42.28661346 111.0843811 C42.20816531 120.16300279 42.15750991 129.24139868 42.1015625 138.3203125 C24.2815625 138.3203125 6.4615625 138.3203125 -11.8984375 138.3203125 C-11.93582031 132.17019531 -11.97320313 126.02007812 -12.01171875 119.68359375 C-12.04199521 115.78708135 -12.07314095 111.89061482 -12.10742188 107.99414062 C-12.16174947 101.80967512 -12.21285937 95.62530034 -12.24487305 89.44067383 C-12.270885 84.45440198 -12.31127266 79.46843471 -12.36162376 74.4823513 C-12.37830671 72.58021013 -12.38981209 70.67801625 -12.39605141 68.77581215 C-12.40567693 66.11104031 -12.43371751 63.4470502 -12.46606445 60.7824707 C-12.46462936 59.99628357 -12.46319427 59.21009644 -12.4617157 58.40008545 C-12.53890234 53.90308036 -13.02370778 50.85479152 -15.8984375 47.3203125 C-18.40205539 46.7174041 -18.40205539 46.7174041 -21.0859375 47.0078125 C-21.98699219 47.05292969 -22.88804687 47.09804688 -23.81640625 47.14453125 C-24.50347656 47.20253906 -25.19054687 47.26054687 -25.8984375 47.3203125 C-27.82997237 52.18773225 -28.20283266 56.630912 -28.21728516 61.80419922 C-28.23235359 63.0490937 -28.23235359 63.0490937 -28.24772644 64.31913757 C-28.27847041 67.04608506 -28.29556904 69.77293475 -28.3125 72.5 C-28.33121872 74.39715409 -28.35079266 76.29429993 -28.3711853 78.19143677 C-28.42243808 83.17259848 -28.46210048 88.15378716 -28.49932861 93.1350708 C-28.54646473 99.11825492 -28.60803317 105.10130593 -28.66717529 111.0843811 C-28.75530398 120.16297097 -28.82512822 129.24153639 -28.8984375 138.3203125 C-46.7184375 138.3203125 -64.5384375 138.3203125 -82.8984375 138.3203125 C-83.01876393 114.84328944 -83.01876393 114.84328944 -83.04492188 104.78125 C-83.06280595 97.93449873 -83.08388798 91.08786863 -83.12475586 84.24121094 C-83.1575216 78.71689786 -83.17532668 73.19271488 -83.18306923 67.66831207 C-83.18858196 65.56814783 -83.19934642 63.46799014 -83.21562767 61.36788177 C-83.37298326 40.21583178 -80.2823683 23.0924813 -64.8984375 7.3203125 C-46.84517673 -8.56438842 -21.07912988 -12.21566826 0 0 Z " fill="#010101" transform="translate(710.8984375,234.6796875)"/>
<path d="M0 0 C49.83 0 99.66 0 151 0 C145.26643955 14.90725718 145.26643955 14.90725718 142.05859375 22.05859375 C141.69849213 22.86912704 141.3383905 23.67966034 140.96737671 24.51475525 C140.19518711 26.25242349 139.42166033 27.98949805 138.6468811 29.72601318 C136.53030647 34.47146869 134.42561247 39.22219054 132.3203125 43.97265625 C131.88276138 44.95951416 131.44521027 45.94637207 130.99440002 46.96313477 C126.21825707 57.7458472 121.50944848 68.55760199 116.8125 79.375 C116.19343277 80.80043625 116.19343277 80.80043625 115.56185913 82.25466919 C107.35290525 101.160401 99.17384303 120.07906707 91 139 C110.47 139 129.94 139 150 139 C150 157.48 150 175.96 150 195 C101.49 195 52.98 195 3 195 C14.43736822 167.55031628 14.43736822 167.55031628 20.27407837 154.24264526 C21.73981703 150.90069908 23.20077065 147.55666628 24.66215515 144.21281433 C25.4032291 142.51724934 26.14452851 140.82178286 26.88606262 139.12641907 C30.04468714 131.90387845 33.18243499 124.67246821 36.3125 117.4375 C45.18127136 96.94658056 54.09509007 76.47523507 63 56 C42.21 56 21.42 56 0 56 C0 37.52 0 19.04 0 0 Z " fill="#49C858" transform="translate(839,178)"/>
<path d="M0 0 C14.93655325 11.53272103 24.8260964 27.57055077 28.125 46.1875 C29.73106126 69.16857523 26.14151074 89.673156 10.56640625 107.59375 C-2.22738788 121.18587689 -18.62573435 132.43629611 -37.94921875 133.27783203 C-40.27966678 133.32137777 -42.60669895 133.32397236 -44.9375 133.3125 C-45.72705078 133.31636719 -46.51660156 133.32023438 -47.33007812 133.32421875 C-48.09900391 133.32292969 -48.86792969 133.32164062 -49.66015625 133.3203125 C-50.34988525 133.31918457 -51.03961426 133.31805664 -51.75024414 133.31689453 C-53.875 133.1875 -53.875 133.1875 -58.875 132.1875 C-58.875 112.7175 -58.875 93.2475 -58.875 73.1875 C-56.235 74.5075 -53.595 75.8275 -50.875 77.1875 C-45.05845719 78.33991956 -40.02746005 77.06098734 -34.875 74.1875 C-30.04356782 70.23451004 -27.44654412 66.0312912 -26.51953125 59.796875 C-26.15242457 53.32785996 -27.69856139 49.11501476 -31.875 44.1875 C-37.70083207 38.77779879 -42.78412765 38.83882044 -50.48046875 38.91015625 C-54.73050381 39.25739732 -56.85541463 40.16791463 -59.875 43.1875 C-66.20444736 51.0993092 -66.17579368 58.92570105 -66.19384766 68.64038086 C-66.20891609 70.49996933 -66.20891609 70.49996933 -66.22428894 72.39712524 C-66.24979798 75.77887064 -66.26670331 79.16044988 -66.27971697 82.5422523 C-66.29539897 86.08303086 -66.3221729 89.62372554 -66.3477478 93.16444397 C-66.39444617 99.86133859 -66.4312334 106.55824914 -66.46442068 113.25522286 C-66.50270544 120.88286154 -66.55209886 128.5104158 -66.60240483 136.1379832 C-66.70559164 151.82110048 -66.79342868 167.50425313 -66.875 183.1875 C-84.695 183.1875 -102.515 183.1875 -120.875 183.1875 C-120.96577429 166.8610454 -121.03925492 150.53481081 -121.08224869 134.2081728 C-121.10275419 126.62509857 -121.13064052 119.04219383 -121.17675781 111.45922852 C-121.21699828 104.83934324 -121.24251972 98.21958087 -121.25135398 91.59957665 C-121.25650683 88.10386575 -121.26835632 84.60850605 -121.29792023 81.11290932 C-121.49835919 56.43462729 -120.80512086 32.31826125 -104.875 12.1875 C-104.22917969 11.35347656 -103.58335938 10.51945312 -102.91796875 9.66015625 C-94.58127116 -0.3779082 -83.03105036 -7.26734921 -70.875 -11.8125 C-70.03710938 -12.13089844 -69.19921875 -12.44929687 -68.3359375 -12.77734375 C-44.75719254 -20.14994844 -19.75128909 -13.53896544 0 0 Z " fill="#010101" transform="translate(1293.875,242.8125)"/>
<path d="M0 0 C1.15653076 0.00491455 2.31306152 0.0098291 3.50463867 0.01489258 C11.5239869 0.12522722 18.62846399 0.66937679 26.25 3.3125 C27.34054687 3.66441406 28.43109375 4.01632813 29.5546875 4.37890625 C37.01279597 6.988383 43.05682869 10.4393652 49.25 15.3125 C49.86230469 15.74949219 50.47460938 16.18648437 51.10546875 16.63671875 C63.97184547 26.44107446 70.34064063 42.99904766 73.25 58.3125 C73.51187355 59.64053146 73.51187355 59.64053146 73.77903748 60.99539185 C74.32260026 64.823842 74.38236858 68.57260021 74.36352539 72.42919922 C74.36367142 73.22011459 74.36381744 74.01102997 74.3639679 74.82591248 C74.36327489 77.42303269 74.35551129 80.02007991 74.34765625 82.6171875 C74.3457899 84.4246517 74.34436702 86.23211641 74.34336853 88.0395813 C74.33956049 92.78407196 74.32974488 97.52853174 74.31866455 102.27301025 C74.30660947 107.97243614 74.30204003 113.67187238 74.29621124 119.37130737 C74.28653217 128.01839302 74.26736363 136.66541099 74.25 145.3125 C56.43 145.3125 38.61 145.3125 20.25 145.3125 C20.22421875 139.99125 20.1984375 134.67 20.171875 129.1875 C20.14669302 125.80594215 20.12034985 122.42447254 20.08984375 119.04296875 C20.04158816 113.68180058 19.99751377 108.32083681 19.97900391 102.95947266 C19.963802 98.63444587 19.92929437 94.30995569 19.88169098 89.98516846 C19.86691347 88.33950478 19.85896108 86.69376448 19.85811615 85.04803467 C20.14965672 71.86809998 20.14965672 71.86809998 13.73236084 60.77832031 C8.37012712 56.09677569 4.54442038 55.90727308 -2.41015625 55.96875 C-7.20299359 56.46204788 -10.27302999 58.02393723 -13.75 61.3125 C-18.54448817 67.4592797 -19.55279452 72.69160551 -18.75 80.3125 C-16.96078644 86.22201679 -13.77494089 89.85785314 -8.75 93.3125 C-5.97265771 94.20441073 -3.40937584 94.47383655 -0.5 94.5 C0.20640625 94.51417969 0.9128125 94.52835937 1.640625 94.54296875 C5.24037874 94.22502643 8.74413073 93.18896732 12.25 92.3125 C12.25 110.4625 12.25 128.6125 12.25 147.3125 C-7.67814715 150.63385786 -26.84846635 146.96043503 -43.55859375 135.36328125 C-46.05022058 133.43293413 -48.40990915 131.42308982 -50.75 129.3125 C-51.43449219 128.72082031 -52.11898438 128.12914062 -52.82421875 127.51953125 C-64.44820521 116.80902113 -72.86091656 100.78076706 -73.91113281 84.87158203 C-74.30239185 61.10032102 -71.28613978 41.4380029 -54.75 23.3125 C-54.23308594 22.7040625 -53.71617187 22.095625 -53.18359375 21.46875 C-39.58095588 6.46834733 -19.68993056 -0.09831429 0 0 Z " fill="#010101" transform="translate(365.75,227.6875)"/>
<path d="M0 0 C1.05413086 0.00491455 2.10826172 0.0098291 3.19433594 0.01489258 C20.99212576 0.27965982 36.15856911 4.32672795 50.4375 15.3125 C51.448125 16.034375 52.45875 16.75625 53.5 17.5 C67.2403333 29.44980828 74.03769048 47.95829341 75.65574646 65.70639801 C75.96895753 71.47286206 75.89965394 77.23569027 75.828125 83.0078125 C75.82063807 84.82054002 75.8149568 86.6332758 75.81097412 88.4460144 C75.79591024 93.15109752 75.7568019 97.85566393 75.7121582 102.56054688 C75.66347157 108.2409752 75.64557953 113.92157909 75.62234497 119.60215759 C75.58393316 128.17262792 75.50714764 136.74197106 75.4375 145.3125 C57.6175 145.3125 39.7975 145.3125 21.4375 145.3125 C21.41171875 140.07503906 21.3859375 134.83757812 21.359375 129.44140625 C21.33418837 126.10997809 21.30784162 122.77863908 21.27734375 119.44726562 C21.22911752 114.16739645 21.18503218 108.88773383 21.16650391 103.60766602 C21.15128447 99.34747009 21.11674625 95.08781702 21.06919098 90.82786369 C21.05443141 89.20814691 21.04646212 87.58835261 21.04561615 85.9685688 C21.27221224 72.33308785 21.27221224 72.33308785 14.91986084 60.7111969 C9.59424817 56.07694319 5.66042865 55.90790505 -1.22265625 55.96875 C-6.01549359 56.46204788 -9.08552999 58.02393723 -12.5625 61.3125 C-17.3282535 67.42244038 -18.42592898 72.72105298 -17.5625 80.3125 C-16.69504333 82.60425233 -15.6813142 84.61117593 -14.4375 86.71875 C-13.5625 88.3125 -13.5625 88.3125 -13.5625 90.3125 C-12.23911368 90.99870031 -10.90300052 91.66036461 -9.5625 92.3125 C-8.510625 92.869375 -8.510625 92.869375 -7.4375 93.4375 C-0.17002755 95.64933944 6.15796342 94.13238414 13.4375 92.3125 C13.4375 110.4625 13.4375 128.6125 13.4375 147.3125 C-6.57109695 150.64726616 -26.21705745 146.72786196 -42.83520508 134.95800781 C-57.97350964 123.7647541 -68.55395033 107.82108828 -72.16796875 89.19140625 C-73.61579074 74.95687919 -74.32421767 59.65284063 -68.5625 46.3125 C-68.3046875 45.71324707 -68.046875 45.11399414 -67.78125 44.49658203 C-59.2512296 25.29909977 -43.7760947 11.72902222 -24.51953125 3.72265625 C-16.39391091 0.66399356 -8.64464156 -0.04774898 0 0 Z " fill="#010101" transform="translate(1070.5625,227.6875)"/>
<path d="M0 0 C17.49 0 34.98 0 53 0 C53.03738281 5.99414062 53.07476563 11.98828125 53.11328125 18.1640625 C53.14356264 21.96487233 53.1747116 25.76563543 53.20898438 29.56640625 C53.26328288 35.59714389 53.31439401 41.62778909 53.34643555 47.65869141 C53.37247376 52.5217781 53.41288006 57.38455388 53.46318626 62.24744797 C53.47985143 64.10131331 53.49136789 65.95523242 53.49761391 67.80916214 C53.50725878 70.40907517 53.53532242 73.00819341 53.56762695 75.60791016 C53.56619186 76.37180054 53.56475677 77.13569092 53.5632782 77.92272949 C53.64645496 82.66620995 54.466854 85.97671832 57 90 C60.19491759 91.59745879 63.53209389 91.50816842 67 91 C69.96858157 88.79259319 70.82865791 87.51402627 72 84 C72.11996454 81.30852044 72.18531849 78.6409636 72.20532227 75.94848633 C72.21522186 75.12874832 72.22512146 74.30901031 72.23532104 73.46443176 C72.26692009 70.75366102 72.2916872 68.04287275 72.31640625 65.33203125 C72.33697715 63.45301354 72.35797366 61.57400045 72.37937927 59.69499207 C72.43458586 54.7482985 72.4840014 49.80156326 72.53222656 44.85479736 C72.59128171 38.920112 72.65750194 32.98550282 72.72252655 27.05088043 C72.8205183 18.0339668 72.90938653 9.01700441 73 0 C90.49 0 107.98 0 126 0 C126.12032643 21.64984397 126.12032643 21.64984397 126.14648438 30.953125 C126.16434485 37.27514296 126.185362 43.59702927 126.22631836 49.91894531 C126.25916634 55.02181812 126.27690612 60.12454953 126.28463173 65.22751999 C126.29012994 67.16414995 126.30086511 69.10077311 126.31719017 71.03734207 C126.50147773 93.8267183 122.26001578 111.06943217 106.25 128.125 C98.72439635 135.40410025 90.00163476 140.07734902 80 143 C79.23558594 143.22558594 78.47117187 143.45117188 77.68359375 143.68359375 C61.46049785 147.66387955 43.87870953 145.21276478 29.55078125 136.6796875 C13.65044896 126.20933086 4.7509885 112.48525801 0.61312866 93.97598267 C-0.83502195 85.78813411 -0.3617734 77.32320991 -0.29296875 69.04296875 C-0.28736193 67.04372987 -0.28309698 65.04448682 -0.28010559 63.04524231 C-0.26874227 57.82563564 -0.23934993 52.60628605 -0.20599365 47.38677979 C-0.16966136 41.1015326 -0.15609103 34.81619866 -0.13863373 28.53087616 C-0.10970631 19.02040622 -0.05215996 9.51049851 0 0 Z " fill="#000000" transform="translate(471,233)"/>
</svg>
